<?xml version="1.0" encoding="UTF-8" standalone="no"?>
<!-- Created with Inkscape (http://www.inkscape.org/) -->

<svg
   xmlns:dc="http://purl.org/dc/elements/1.1/"
   xmlns:cc="http://creativecommons.org/ns#"
   xmlns:rdf="http://www.w3.org/1999/02/22-rdf-syntax-ns#"
   xmlns:svg="http://www.w3.org/2000/svg"
   xmlns="http://www.w3.org/2000/svg"
   xmlns:sodipodi="http://sodipodi.sourceforge.net/DTD/sodipodi-0.dtd"
   xmlns:inkscape="http://www.inkscape.org/namespaces/inkscape"
   width="153.28"
   height="147.28"
   id="svg2"
   version="1.1"
   inkscape:version="0.48.3.1 r9886"
   sodipodi:docname="graph.svg">
  <defs
     id="defs4" />
  <sodipodi:namedview
     id="base"
     pagecolor="#ffffff"
     bordercolor="#666666"
     borderopacity="1.0"
     inkscape:pageopacity="0.0"
     inkscape:pageshadow="2"
     inkscape:zoom="2.8"
     inkscape:cx="-24.898837"
     inkscape:cy="102.99942"
     inkscape:document-units="px"
     inkscape:current-layer="layer1"
     showgrid="false"
     fit-margin-top="0"
     fit-margin-left="0"
     fit-margin-right="0"
     fit-margin-bottom="0"
     inkscape:window-width="1600"
     inkscape:window-height="876"
     inkscape:window-x="0"
     inkscape:window-y="24"
     inkscape:window-maximized="1" />
  <metadata
     id="metadata7">
    <rdf:RDF>
      <cc:Work
         rdf:about="">
        <dc:format>image/svg+xml</dc:format>
        <dc:type
           rdf:resource="http://purl.org/dc/dcmitype/StillImage" />
        <dc:title></dc:title>
      </cc:Work>
    </rdf:RDF>
  </metadata>
  <g
     inkscape:label="Layer 1"
     inkscape:groupmode="layer"
     id="layer1"
     transform="translate(-142.65625,-430.93875)">
    <path
       sodipodi:type="arc"
       style="fill:none;stroke:#000000;stroke-width:1;stroke-linejoin:round;stroke-miterlimit:4;stroke-opacity:1;stroke-dasharray:none"
       id="path2989"
       sodipodi:cx="229.28572"
       sodipodi:cy="445.57648"
       sodipodi:rx="12.142858"
       sodipodi:ry="12.142858"
       d="m 241.42858,445.57648 c 0,6.70631 -5.43654,12.14285 -12.14286,12.14285 -6.70631,0 -12.14286,-5.43654 -12.14286,-12.14285 0,-6.70632 5.43655,-12.14286 12.14286,-12.14286 6.70632,0 12.14286,5.43654 12.14286,12.14286 z"
       transform="translate(0.71428572,-0.71428572)" />
    <path
       d="m 241.42858,445.57648 c 0,6.70631 -5.43654,12.14285 -12.14286,12.14285 -6.70631,0 -12.14286,-5.43654 -12.14286,-12.14285 0,-6.70632 5.43655,-12.14286 12.14286,-12.14286 6.70632,0 12.14286,5.43654 12.14286,12.14286 z"
       sodipodi:ry="12.142858"
       sodipodi:rx="12.142858"
       sodipodi:cy="445.57648"
       sodipodi:cx="229.28572"
       id="path3759"
       style="fill:none;stroke:#000000;stroke-width:1;stroke-linejoin:round;stroke-miterlimit:4;stroke-opacity:1;stroke-dasharray:none"
       sodipodi:type="arc"
       transform="translate(-25.285714,39.285714)" />
    <path
       transform="translate(28.714286,39.285714)"
       sodipodi:type="arc"
       style="fill:none;stroke:#000000;stroke-width:1;stroke-linejoin:round;stroke-miterlimit:4;stroke-opacity:1;stroke-dasharray:none"
       id="path3761"
       sodipodi:cx="229.28572"
       sodipodi:cy="445.57648"
       sodipodi:rx="12.142858"
       sodipodi:ry="12.142858"
       d="m 241.42858,445.57648 c 0,6.70631 -5.43654,12.14285 -12.14286,12.14285 -6.70631,0 -12.14286,-5.43654 -12.14286,-12.14285 0,-6.70632 5.43655,-12.14286 12.14286,-12.14286 6.70632,0 12.14286,5.43654 12.14286,12.14286 z" />
    <path
       d="m 241.42858,445.57648 c 0,6.70631 -5.43654,12.14285 -12.14286,12.14285 -6.70631,0 -12.14286,-5.43654 -12.14286,-12.14285 0,-6.70632 5.43655,-12.14286 12.14286,-12.14286 6.70632,0 12.14286,5.43654 12.14286,12.14286 z"
       sodipodi:ry="12.142858"
       sodipodi:rx="12.142858"
       sodipodi:cy="445.57648"
       sodipodi:cx="229.28572"
       id="path3763"
       style="fill:none;stroke:#000000;stroke-width:1;stroke-linejoin:round;stroke-miterlimit:4;stroke-opacity:1;stroke-dasharray:none"
       sodipodi:type="arc"
       transform="translate(52.714286,79.285714)" />
    <path
       transform="translate(-49.285714,79.285714)"
       sodipodi:type="arc"
       style="fill:none;stroke:#000000;stroke-width:1;stroke-linejoin:round;stroke-miterlimit:4;stroke-opacity:1;stroke-dasharray:none"
       id="path3765"
       sodipodi:cx="229.28572"
       sodipodi:cy="445.57648"
       sodipodi:rx="12.142858"
       sodipodi:ry="12.142858"
       d="m 241.42858,445.57648 c 0,6.70631 -5.43654,12.14285 -12.14286,12.14285 -6.70631,0 -12.14286,-5.43654 -12.14286,-12.14285 0,-6.70632 5.43655,-12.14286 12.14286,-12.14286 6.70632,0 12.14286,5.43654 12.14286,12.14286 z" />
    <path
       transform="translate(-73.285714,119.28572)"
       sodipodi:type="arc"
       style="fill:none;stroke:#000000;stroke-width:1;stroke-linejoin:round;stroke-miterlimit:4;stroke-opacity:1;stroke-dasharray:none"
       id="path3769"
       sodipodi:cx="229.28572"
       sodipodi:cy="445.57648"
       sodipodi:rx="12.142858"
       sodipodi:ry="12.142858"
       d="m 241.42858,445.57648 c 0,6.70631 -5.43654,12.14285 -12.14286,12.14285 -6.70631,0 -12.14286,-5.43654 -12.14286,-12.14285 0,-6.70632 5.43655,-12.14286 12.14286,-12.14286 6.70632,0 12.14286,5.43654 12.14286,12.14286 z" />
    <path
       style="fill:none;stroke:#000000;stroke-width:1px;stroke-linecap:butt;stroke-linejoin:miter;stroke-opacity:1"
       d="m 222.49999,454.50504 -11.78571,20.35715"
       id="path3771"
       inkscape:connector-curvature="0" />
    <path
       style="fill:none;stroke:#000000;stroke-width:1px;stroke-linecap:butt;stroke-linejoin:miter;stroke-opacity:1"
       d="M 198.21428,495.21933 186.78571,514.1479"
       id="path3773"
       inkscape:connector-curvature="0" />
    <path
       style="fill:none;stroke:#000000;stroke-width:1px;stroke-linecap:butt;stroke-linejoin:miter;stroke-opacity:1"
       d="m 173.92857,535.21933 -11.42858,19.28571"
       id="path3775"
       inkscape:connector-curvature="0" />
    <path
       style="fill:none;stroke:#000000;stroke-width:1px;stroke-linecap:butt;stroke-linejoin:miter;stroke-opacity:1"
       d="m 186.42857,535.21933 11.42857,18.57143"
       id="path3777"
       inkscape:connector-curvature="0" />
    <path
       style="fill:none;stroke:#000000;stroke-width:1px;stroke-linecap:butt;stroke-linejoin:miter;stroke-opacity:1"
       d="m 238.21428,454.50504 13.21429,19.64286"
       id="path3779"
       inkscape:connector-curvature="0" />
    <path
       style="fill:none;stroke:#000000;stroke-width:1px;stroke-linecap:butt;stroke-linejoin:miter;stroke-opacity:1"
       d="m 263.21428,495.75505 12.14286,18.39285"
       id="path3781"
       inkscape:connector-curvature="0"
       sodipodi:nodetypes="cc" />
  </g>
</svg>
