<?xml version="1.0" encoding="UTF-8" standalone="no"?>
<!-- Created with Inkscape (http://www.inkscape.org/) -->

<svg
   xmlns:dc="http://purl.org/dc/elements/1.1/"
   xmlns:cc="http://creativecommons.org/ns#"
   xmlns:rdf="http://www.w3.org/1999/02/22-rdf-syntax-ns#"
   xmlns:svg="http://www.w3.org/2000/svg"
   xmlns="http://www.w3.org/2000/svg"
   xmlns:sodipodi="http://sodipodi.sourceforge.net/DTD/sodipodi-0.dtd"
   xmlns:inkscape="http://www.inkscape.org/namespaces/inkscape"
   width="288.34"
   height="68.75"
   id="svg4416"
   version="1.1"
   inkscape:version="0.48.3.1 r9886"
   sodipodi:docname="bsort4.svg">
  <sodipodi:namedview
     id="base"
     pagecolor="#ffffff"
     bordercolor="#666666"
     borderopacity="1.0"
     inkscape:pageopacity="0.0"
     inkscape:pageshadow="2"
     inkscape:zoom="1.4"
     inkscape:cx="-42.834066"
     inkscape:cy="59.883253"
     inkscape:document-units="px"
     inkscape:current-layer="layer1"
     showgrid="false"
     inkscape:window-width="1600"
     inkscape:window-height="876"
     inkscape:window-x="0"
     inkscape:window-y="24"
     inkscape:window-maximized="1"
     fit-margin-top="0"
     fit-margin-left="0"
     fit-margin-right="0"
     fit-margin-bottom="0" />
  <defs
     id="defs4418" />
  <metadata
     id="metadata4421">
    <rdf:RDF>
      <cc:Work
         rdf:about="">
        <dc:format>image/svg+xml</dc:format>
        <dc:type
           rdf:resource="http://purl.org/dc/dcmitype/StillImage" />
        <dc:title></dc:title>
      </cc:Work>
    </rdf:RDF>
  </metadata>
  <g
     transform="translate(-140.46867,-415.84495)"
     id="layer1"
     inkscape:groupmode="layer"
     inkscape:label="Layer 1">
    <rect
       style="fill:none;stroke:#000000;stroke-width:1;stroke-linejoin:round;stroke-miterlimit:4;stroke-opacity:1;stroke-dasharray:none"
       id="rect3301"
       width="285.35361"
       height="32.324883"
       x="141.68033"
       y="417.6283" />
    <path
       style="fill:none;stroke:#000000;stroke-width:1;stroke-linecap:butt;stroke-linejoin:miter;stroke-miterlimit:4;stroke-opacity:1;stroke-dasharray:none"
       d="m 172.83684,417.62825 0,32.36958"
       id="path3303"
       inkscape:connector-curvature="0" />
    <text
       sodipodi:linespacing="125%"
       id="text4945"
       y="438.14789"
       x="213.49998"
       style="font-size:12px;font-style:normal;font-variant:normal;font-weight:normal;font-stretch:normal;line-height:125%;letter-spacing:0px;word-spacing:0px;fill:#000000;fill-opacity:1;stroke:none;font-family:Andale Mono;-inkscape-font-specification:Andale Mono"
       xml:space="preserve"><tspan
         y="438.14789"
         x="213.49998"
         id="tspan4947"
         sodipodi:role="line">23</tspan></text>
    <path
       inkscape:connector-curvature="0"
       id="path4949"
       d="m 204.83684,417.62825 0,32.36958"
       style="fill:none;stroke:#000000;stroke-width:1;stroke-linecap:butt;stroke-linejoin:miter;stroke-miterlimit:4;stroke-opacity:1;stroke-dasharray:none" />
    <text
       xml:space="preserve"
       style="font-size:12px;font-style:normal;font-variant:normal;font-weight:normal;font-stretch:normal;line-height:125%;letter-spacing:0px;word-spacing:0px;fill:#000000;fill-opacity:1;stroke:none;font-family:Andale Mono;-inkscape-font-specification:Andale Mono"
       x="154.07143"
       y="438.14789"
       id="text4951"
       sodipodi:linespacing="125%"><tspan
         sodipodi:role="line"
         id="tspan4953"
         x="154.07143"
         y="438.14789">7</tspan></text>
    <path
       style="fill:none;stroke:#000000;stroke-width:1;stroke-linecap:butt;stroke-linejoin:miter;stroke-miterlimit:4;stroke-opacity:1;stroke-dasharray:none"
       d="m 236.83684,417.62825 0,32.36958"
       id="path4955"
       inkscape:connector-curvature="0" />
    <text
       sodipodi:linespacing="125%"
       id="text4957"
       y="438.14789"
       x="186.07143"
       style="font-size:12px;font-style:normal;font-variant:normal;font-weight:normal;font-stretch:normal;line-height:125%;letter-spacing:0px;word-spacing:0px;fill:#000000;fill-opacity:1;stroke:none;font-family:Andale Mono;-inkscape-font-specification:Andale Mono"
       xml:space="preserve"><tspan
         y="438.14789"
         x="186.07143"
         id="tspan4959"
         sodipodi:role="line">5</tspan></text>
    <path
       inkscape:connector-curvature="0"
       id="path4961"
       d="m 268.83684,417.62825 0,32.36958"
       style="fill:none;stroke:#000000;stroke-width:1;stroke-linecap:butt;stroke-linejoin:miter;stroke-miterlimit:4;stroke-opacity:1;stroke-dasharray:none" />
    <text
       xml:space="preserve"
       style="font-size:12px;font-style:normal;font-variant:normal;font-weight:normal;font-stretch:normal;line-height:125%;letter-spacing:0px;word-spacing:0px;fill:#000000;fill-opacity:1;stroke:none;font-family:Andale Mono;-inkscape-font-specification:Andale Mono"
       x="246.07143"
       y="438.14789"
       id="text4963"
       sodipodi:linespacing="125%"><tspan
         sodipodi:role="line"
         id="tspan4965"
         x="246.07143"
         y="438.14789">31</tspan></text>
    <path
       style="fill:none;stroke:#000000;stroke-width:1;stroke-linecap:butt;stroke-linejoin:miter;stroke-miterlimit:4;stroke-opacity:1;stroke-dasharray:none"
       d="m 300.83684,417.62825 0,32.36958"
       id="path4967"
       inkscape:connector-curvature="0" />
    <text
       sodipodi:linespacing="125%"
       id="text4969"
       y="438.14789"
       x="282.07144"
       style="font-size:12px;font-style:normal;font-variant:normal;font-weight:normal;font-stretch:normal;line-height:125%;letter-spacing:0px;word-spacing:0px;fill:#000000;fill-opacity:1;stroke:none;font-family:Andale Mono;-inkscape-font-specification:Andale Mono"
       xml:space="preserve"><tspan
         y="438.14789"
         x="282.07144"
         id="tspan4971"
         sodipodi:role="line">9</tspan></text>
    <path
       inkscape:connector-curvature="0"
       id="path4973"
       d="m 332.83684,417.62825 0,32.36958"
       style="fill:none;stroke:#000000;stroke-width:1;stroke-linecap:butt;stroke-linejoin:miter;stroke-miterlimit:4;stroke-opacity:1;stroke-dasharray:none" />
    <text
       xml:space="preserve"
       style="font-size:12px;font-style:normal;font-variant:normal;font-weight:normal;font-stretch:normal;line-height:125%;letter-spacing:0px;word-spacing:0px;fill:#000000;fill-opacity:1;stroke:none;font-family:Andale Mono;-inkscape-font-specification:Andale Mono"
       x="310.07144"
       y="438.14789"
       id="text4975"
       sodipodi:linespacing="125%"><tspan
         sodipodi:role="line"
         id="tspan4977"
         x="310.07144"
         y="438.14789">18</tspan></text>
    <path
       style="fill:none;stroke:#000000;stroke-width:1;stroke-linecap:butt;stroke-linejoin:miter;stroke-miterlimit:4;stroke-opacity:1;stroke-dasharray:none"
       d="m 364.83684,417.62825 0,32.36958"
       id="path4979"
       inkscape:connector-curvature="0" />
    <text
       sodipodi:linespacing="125%"
       id="text4981"
       y="438.14789"
       x="346.07144"
       style="font-size:12px;font-style:normal;font-variant:normal;font-weight:normal;font-stretch:normal;line-height:125%;letter-spacing:0px;word-spacing:0px;fill:#000000;fill-opacity:1;stroke:none;font-family:Andale Mono;-inkscape-font-specification:Andale Mono"
       xml:space="preserve"><tspan
         y="438.14789"
         x="346.07144"
         id="tspan4983"
         sodipodi:role="line">4</tspan></text>
    <path
       inkscape:connector-curvature="0"
       id="path4985"
       d="m 396.83684,417.62825 0,32.36958"
       style="fill:none;stroke:#000000;stroke-width:1;stroke-linecap:butt;stroke-linejoin:miter;stroke-miterlimit:4;stroke-opacity:1;stroke-dasharray:none" />
    <text
       xml:space="preserve"
       style="font-size:12px;font-style:normal;font-variant:normal;font-weight:normal;font-stretch:normal;line-height:125%;letter-spacing:0px;word-spacing:0px;fill:#000000;fill-opacity:1;stroke:none;font-family:Andale Mono;-inkscape-font-specification:Andale Mono"
       x="374.07144"
       y="438.14789"
       id="text4987"
       sodipodi:linespacing="125%"><tspan
         sodipodi:role="line"
         id="tspan4989"
         x="374.07144"
         y="438.14789">32</tspan></text>
    <text
       sodipodi:linespacing="125%"
       id="text4993"
       y="438.14789"
       x="410.07144"
       style="font-size:12px;font-style:normal;font-variant:normal;font-weight:normal;font-stretch:normal;line-height:125%;letter-spacing:0px;word-spacing:0px;fill:#000000;fill-opacity:1;stroke:none;font-family:Andale Mono;-inkscape-font-specification:Andale Mono"
       xml:space="preserve"><tspan
         y="438.14789"
         x="410.07144"
         id="tspan4995"
         sodipodi:role="line">6</tspan></text>
    <g
       id="g3935"
       transform="translate(97.428568,-0.71428571)">
      <path
         style="fill:none;stroke:#ff0000;stroke-width:1px;stroke-linecap:butt;stroke-linejoin:miter;stroke-opacity:1"
         d="m 16.071429,41.024287 0,11.071429 31.785714,0 0,-11.071429"
         id="path3087"
         inkscape:connector-curvature="0"
         transform="translate(139.74992,416.565)" />
      <g
         transform="matrix(5.8896126,0,0,5.8896126,79.31262,-668.99362)"
         id="g3890">
        <g
           style="font-style:normal;font-variant:normal;font-weight:normal;font-stretch:normal;letter-spacing:normal;word-spacing:normal;text-anchor:start;fill:none;stroke:#000000;stroke-linecap:butt;stroke-linejoin:miter;stroke-miterlimit:10.43299961;stroke-opacity:1;stroke-dasharray:none;stroke-dashoffset:0"
           id="content"
           transform="matrix(0.05044286,0,0,-0.05044286,-8.8275003,216.255)"
           xml:space="preserve"
           stroke-miterlimit="10.433"
           font-style="normal"
           font-variant="normal"
           font-weight="normal"
           font-stretch="normal"
           font-size-adjust="none"
           letter-spacing="normal"
           word-spacing="normal"><path
             style="fill:#000000;stroke-width:0"
             inkscape:connector-curvature="0"
             d="m 489.14,417.56 0.11,0.05 0.09,0.04 0.05,0.03 0.05,0.02 0.04,0.03 0.04,0.02 0.05,0.03 0.04,0.02 0.04,0.03 0.04,0.03 0.03,0.03 0.04,0.03 0.03,0.03 0.04,0.03 0.03,0.03 0.03,0.03 0.02,0.04 0.03,0.03 0.02,0.04 0.03,0.04 0.02,0.04 0.02,0.04 0.01,0.04 0.02,0.04 0.01,0.05 0.01,0.05 0.01,0.04 0,0.05 0.01,0.06 0,0.05 c 0,0.6 -0.41,0.85 -0.96,1.1 l -27.59,13.01 c -0.66,0.35 -0.75,0.35 -0.91,0.35 -0.54,0 -0.98,-0.46 -0.98,-1 0,-0.46 0.25,-0.75 0.94,-1.1 l 26.15,-12.36 -26.15,-12.36 c -0.69,-0.34 -0.94,-0.64 -0.94,-1.09 0,-0.55 0.44,-1 0.98,-1 0.16,0 0.25,0 0.91,0.36 z"
             id="path3893" /><path
             style="fill:#000000;stroke-width:0"
             inkscape:connector-curvature="0"
             d="m 505.98,418.61 0.01,0.58 0.04,0.56 0.07,0.55 0.09,0.53 0.11,0.52 0.14,0.5 0.15,0.49 0.17,0.47 0.19,0.45 0.21,0.44 0.21,0.43 0.23,0.41 0.25,0.39 0.25,0.38 0.25,0.37 0.27,0.35 0.27,0.34 0.27,0.32 0.28,0.3 0.27,0.3 0.28,0.27 0.27,0.27 0.27,0.25 0.27,0.24 0.26,0.22 0.25,0.21 0.24,0.19 0.23,0.18 0.22,0.17 0.2,0.16 0.19,0.14 0.17,0.12 c 1.34,1 2.39,2.8 2.39,4.88 0,2.89 -1.98,6.73 -9.41,6.73 -5.39,0 -8.47,-3.39 -8.47,-6.62 0,-1.7 1.14,-2.39 2.29,-2.39 1.4,0 2.29,1 2.29,2.28 0,2.25 -2.09,2.25 -2.79,2.25 1.54,2.64 4.43,3.39 6.53,3.39 5.43,0 5.43,-3.39 5.43,-5.33 0,-2.95 -0.79,-3.84 -1.7,-4.73 -3.28,-3.6 -4.37,-8.17 -4.37,-11.22 v -2.24 c 0,-0.9 0,-1.2 0.59,-1.2 0.64,0 0.64,0.45 0.64,1.35 z"
             id="path3895" /><path
             style="fill:#000000;stroke-width:0"
             inkscape:connector-curvature="0"
             d="m 507.98,408.84 0,0.13 -0.01,0.14 -0.02,0.13 -0.02,0.13 -0.03,0.12 -0.04,0.13 -0.04,0.12 -0.05,0.12 -0.05,0.12 -0.06,0.11 -0.07,0.11 -0.07,0.11 -0.07,0.1 -0.08,0.1 -0.08,0.1 -0.09,0.09 -0.09,0.09 -0.1,0.08 -0.1,0.08 -0.1,0.07 -0.11,0.07 -0.11,0.07 -0.11,0.06 -0.12,0.05 -0.12,0.05 -0.12,0.04 -0.13,0.04 -0.12,0.03 -0.13,0.02 -0.13,0.02 -0.14,0.01 -0.13,0 c -1.45,0 -2.64,-1.2 -2.64,-2.64 0,-1.44 1.19,-2.64 2.64,-2.64 1.44,0 2.64,1.2 2.64,2.64 z"
             id="path3897" /></g>      </g>
    </g>
  </g>
</svg>
